<?xml version="1.0" encoding="UTF-8"?><svg version="1.1" xmlns="http://www.w3.org/2000/svg" xmlns:xlink="http://www.w3.org/1999/xlink" viewBox="0 0 1500 1500" width="1500" height="1500" x="0px" y="0px">
              
              <!-- ITEM 0 -->
<g transform="translate(216.0 368.0) scale(4.461740762980473 4.4446024747546575) rotate(0.0 65.7815 84.37200000000001)">
<g transform="translate(-0.0 -0.0)">
<title> tablet</title><g id="Layer_2-i0" data-name="Layer 2"><g id="Layer_1-2-i0" data-name="Layer 1"><path d="M11.849,0H119.714a11.858,11.858,0,0,1,11.849,11.849V156.9a11.858,11.858,0,0,1-11.849,11.849H11.849A11.858,11.858,0,0,1,0,156.9V11.849A11.991,11.991,0,0,1,11.849,0Z" fill="#f9d5ff"/><rect x="7.712" y="13.483" width="116.139" height="133.401" fill="#fff"/><circle cx="65.781" cy="157.406" r="5.312" fill="#fff"/></g></g>
</g>
</g>

<!-- ITEM 1 -->
<g transform="translate(519.0 286.0) scale(4.073194694612739 4.066566566566567) rotate(0.0 73.284 71.928)">
<g transform="translate(-0.0 -0.0)">
<title>map</title><g id="Layer_2-i1" data-name="Layer 2"><g id="Layer_1-2-i1" data-name="Layer 1"><path d="M3.247,49.077a.946.946,0,0,1-.738-.3.856.856,0,0,1-.295-.738q.332-23.025.664-46.051A1.009,1.009,0,0,1,3.911.959c46.569.3,93.8,1.107,140.738,1.919a1.312,1.312,0,0,1,.738.295.947.947,0,0,1,.3.738q-.333,23.027-.591,46.052a.951.951,0,0,1-1.033.96A1227.78,1227.78,0,0,0,3.247,49.077Z" fill="#f4e1e1"/><path d="M3.911,2.066q70.3.776,140.665,1.919-.333,23.027-.591,46.052A1316.259,1316.259,0,0,0,3.247,48.118q.333-23.136.664-46.052M3.911,0A2.1,2.1,0,0,0,1.845,1.993q-.331,23.025-.664,46.125a2.015,2.015,0,0,0,.59,1.4,1.683,1.683,0,0,0,1.4.517,1279.369,1279.369,0,0,1,140.738,1.919h0a1.95,1.95,0,0,0,1.4-.517,2.015,2.015,0,0,0,.59-1.4c.221-15.351.443-30.775.664-46.126a2.047,2.047,0,0,0-1.992-2.066C97.712,1.181,50.849.664,3.911,0Z" fill="#be6361"/><path d="M1.993,141.255a.708.708,0,0,1-.738-.222.718.718,0,0,1-.3-.664c.222-15.424.443-30.775.665-46.2a1.121,1.121,0,0,1,1.033-1.107A632.238,632.238,0,0,1,143.4,94.908a1.178,1.178,0,0,1,1.033,1.107c-.221,15.35-.443,30.627-.59,45.978a.935.935,0,0,1-.3.664.858.858,0,0,1-.738.147A435.552,435.552,0,0,0,1.993,141.255Z" fill="#f4e1e1"/><path d="M2.657,94.1A684.832,684.832,0,0,1,143.4,95.941c-.222,15.277-.443,30.627-.591,45.9A463.879,463.879,0,0,0,2.066,140.221c.148-15.35.369-30.775.591-46.125m0-2.066A2.433,2.433,0,0,0,.59,94.244Q.259,117.38,0,140.517a1.728,1.728,0,0,0,.59,1.328,1.851,1.851,0,0,0,1.4.369,454.6,454.6,0,0,1,140.738,1.624h0a1.679,1.679,0,0,0,1.992-1.7q.333-23.025.591-45.978a2.536,2.536,0,0,0-.591-1.549,1.9,1.9,0,0,0-1.4-.738A705.312,705.312,0,0,0,2.657,92.03Z" fill="#be6361"/><path d="M2.657,95.129a1.25,1.25,0,0,1-.738-.221.8.8,0,0,1-.295-.664c.221-15.351.442-30.775.664-46.126a1.009,1.009,0,0,1,1.033-1.033A1211.034,1211.034,0,0,1,144.059,49a1.022,1.022,0,0,1,.738.369.948.948,0,0,1,.3.738q-.332,23.025-.59,45.978a.861.861,0,0,1-1.033.885A632.731,632.731,0,0,0,2.657,95.129Z" fill="#d6c1c1"/><path d="M3.321,48.044a1336.735,1336.735,0,0,1,140.738,1.919c-.221,15.351-.443,30.627-.59,45.978A684.765,684.765,0,0,0,2.731,94.1q.221-23.026.59-46.052m-.074-2.066a2.293,2.293,0,0,0-2.066,2.14C.959,63.542.738,78.893.517,94.317a2.017,2.017,0,0,0,.59,1.4,1.631,1.631,0,0,0,1.4.442,669.679,669.679,0,0,1,140.738,1.845h0a1.824,1.824,0,0,0,2.067-1.771q.332-23.025.59-46.051a2.2,2.2,0,0,0-.59-1.477,1.821,1.821,0,0,0-1.4-.664A1354.47,1354.47,0,0,0,3.247,45.978Z" fill="#be6361"/><path d="M112.472,92.841c-5.387,6.126-10.848,12.251-16.236,18.377a7.444,7.444,0,0,1-9.889.885Q71.956,101.809,57.2,91.882C75.646,91.587,94.022,91.882,112.472,92.841Z" fill="#d4b0d6"/><path d="M45.756,46.937c4.576,3.4,6.79,5.092,11.366,8.487-.3,11.882-.664,23.838-.96,35.72l1.107.738c18.451-.369,36.827,0,55.277.959-3.4-5.461-6.79-10.848-10.258-16.236Q119.778,63.1,137.122,49.52,91.4,46.641,45.756,46.937Z" fill="#c595c8"/><path d="M45.756,46.937c-4.649-5.461-9.372-10.922-14.022-16.384a10.654,10.654,0,0,1,3.617-16.236C43.4,10.406,51.439,6.494,59.483,2.657c20.665.295,41.255.516,61.919.885q7.971,22.915,15.72,45.978Q91.4,46.641,45.756,46.937Z" fill="#d4b0d6"/><path d="M84.059,16.31a1.054,1.054,0,0,1-.886-.443l-.959-1.328a1.107,1.107,0,1,1,1.771-1.329l.96,1.329a1.146,1.146,0,0,1-.222,1.55A1.194,1.194,0,0,1,84.059,16.31Z" fill="#be6361"/><path d="M103.1,43.985a.9.9,0,0,1-.886-.516c-.738-1.034-1.4-2.141-2.14-3.174a1.115,1.115,0,1,1,1.845-1.254c.738,1.033,1.4,2.14,2.14,3.173a1.093,1.093,0,0,1-.3,1.55A1.2,1.2,0,0,1,103.1,43.985Zm-6.421-9.446a.965.965,0,0,1-.886-.517l-2.14-3.173A1.116,1.116,0,1,1,95.5,29.594l2.14,3.174a1.091,1.091,0,0,1-.3,1.549A1.188,1.188,0,0,1,96.679,34.539Zm-6.568-9.447a1.052,1.052,0,0,1-.886-.443l-2.14-3.173a1.116,1.116,0,0,1,1.845-1.255L91.07,23.4a1.093,1.093,0,0,1-.295,1.55A2.176,2.176,0,0,1,90.111,25.092Z" fill="#be6361"/><path d="M105.092,49.889a1.074,1.074,0,0,1-.959-.516,1.181,1.181,0,0,1,.369-1.55,1.574,1.574,0,0,0,.443-.3c-.074-.148-.222-.3-.369-.517a1.126,1.126,0,1,1,1.918-1.181,5.268,5.268,0,0,0,.443.664c.148.222.3.443.517.738a1.127,1.127,0,0,1-.295,1.476,4.8,4.8,0,0,1-.96.591,4.216,4.216,0,0,0-.516.3A.764.764,0,0,1,105.092,49.889Z" fill="#be6361"/><path d="M75.867,69.594a.894.894,0,0,1-.885-.517,1.091,1.091,0,0,1,.3-1.549L78.6,65.314a1.115,1.115,0,1,1,1.254,1.845l-3.321,2.214A1.191,1.191,0,0,1,75.867,69.594Zm9.963-6.716a.893.893,0,0,1-.885-.516,1.092,1.092,0,0,1,.3-1.55L88.561,58.6a1.116,1.116,0,1,1,1.255,1.845l-3.322,2.214A1.191,1.191,0,0,1,85.83,62.878Zm9.963-6.716a.893.893,0,0,1-.885-.516,1.092,1.092,0,0,1,.3-1.55l3.321-2.214a1.116,1.116,0,1,1,1.255,1.845l-3.321,2.214A1.189,1.189,0,0,1,95.793,56.162Z" fill="#be6361"/><path d="M71.734,74.391a1.049,1.049,0,0,1-.885-.443,7.938,7.938,0,0,0-.664-.811l-.3-.369a.972.972,0,0,1-.221-.886,1.065,1.065,0,0,1,.517-.738c.442-.3.738-.517,1.107-.738l.221-.148a1.107,1.107,0,1,1,1.328,1.771l-.221.148c-.074.074-.148.074-.221.148a1.287,1.287,0,0,0,.3.369,1.146,1.146,0,0,1-.222,1.55A3.279,3.279,0,0,1,71.734,74.391Z" fill="#be6361"/><path d="M82.878,87.97a1.357,1.357,0,0,1-.885-.369c-.665-.811-1.329-1.623-1.919-2.361a1.1,1.1,0,1,1,1.7-1.4c.591.738,1.255,1.476,1.919,2.361a1.144,1.144,0,0,1-.148,1.55A1.025,1.025,0,0,1,82.878,87.97Zm-5.756-7.011a1.361,1.361,0,0,1-.886-.369c-.59-.738-1.181-1.476-1.919-2.361a1.1,1.1,0,0,1,1.7-1.4c.738.885,1.328,1.623,1.919,2.361a1.144,1.144,0,0,1-.148,1.55A1.029,1.029,0,0,1,77.122,80.959Z" fill="#be6361"/><path d="M85.314,93.653a1.181,1.181,0,0,1-.812-.369,1.076,1.076,0,0,1,.147-1.55,3.2,3.2,0,0,0,.517-.442c-.074-.148-.221-.222-.3-.37a1.1,1.1,0,0,1,1.7-1.4c.443.517.738.886,1.107,1.4a1.487,1.487,0,0,1,.222.812,1.531,1.531,0,0,1-.443.738c-.443.369-.738.517-1.255.96A2.562,2.562,0,0,1,85.314,93.653Z" fill="#be6361"/><path d="M68.782,106.494a1.139,1.139,0,0,1-.738-1.992c1.033-.812,1.919-1.55,2.805-2.214a1.1,1.1,0,1,1,1.4,1.7c-.886.664-1.771,1.4-2.8,2.214A.9.9,0,0,1,68.782,106.494Zm8.487-6.715a1.153,1.153,0,0,1-.885-.443,1.079,1.079,0,0,1,.221-1.55l2.878-2.214a1.107,1.107,0,1,1,1.329,1.771l-2.878,2.214A1.03,1.03,0,0,1,77.269,99.779Z" fill="#be6361"/><path d="M63.321,110.775a1.188,1.188,0,0,1-.664-.222l-1.329-.959a1.107,1.107,0,0,1,1.329-1.771l.664.516a3.679,3.679,0,0,0,.59-.516,1.1,1.1,0,1,1,1.4,1.7c-.517.443-.886.738-1.4,1.107A1.385,1.385,0,0,1,63.321,110.775Z" fill="#be6361"/><path d="M56.753,105.9a1.191,1.191,0,0,1-.664-.221l-2.952-2.141a1.107,1.107,0,1,1,1.328-1.771l2.952,2.14a1.078,1.078,0,0,1,.221,1.55A1.051,1.051,0,0,1,56.753,105.9ZM47.9,99.41a1.191,1.191,0,0,1-.665-.222l-2.952-2.14a1.107,1.107,0,0,1,1.329-1.771l2.952,2.14a1.078,1.078,0,0,1,.221,1.55A1.153,1.153,0,0,1,47.9,99.41Z" fill="#be6361"/><path d="M38.524,94.686a1.186,1.186,0,0,1-.664-.221,1.078,1.078,0,0,1-.222-1.55c.369-.516.665-.885,1.107-1.4a1.053,1.053,0,0,1,1.476-.148l1.329.96A1.107,1.107,0,1,1,40.221,94.1l-.516-.369a1.979,1.979,0,0,1-.369.443A.8.8,0,0,1,38.524,94.686Z" fill="#be6361"/><path d="M27.823,108.192a1.185,1.185,0,0,1-.664-.222,1.077,1.077,0,0,1-.222-1.549c.664-.812,1.255-1.624,1.771-2.288a1.107,1.107,0,0,1,1.772,1.328c-.591.738-1.181,1.476-1.771,2.288A1.054,1.054,0,0,1,27.823,108.192Zm5.387-6.937a1.029,1.029,0,0,1-.664-.222,1.076,1.076,0,0,1-.147-1.55L34.244,97.2a1.1,1.1,0,1,1,1.7,1.4L34.1,100.886A1.224,1.224,0,0,1,33.21,101.255Z" fill="#be6361"/><path d="M23.911,113.358a1.731,1.731,0,0,1-.59-.148,1.163,1.163,0,0,1-.369-1.55c.295-.442.517-.738.738-1.033a1.974,1.974,0,0,1,.369-.443,1.107,1.107,0,1,1,1.771,1.329c-.147.221-.295.369-.369.517a7.694,7.694,0,0,0-.59.811A1.077,1.077,0,0,1,23.911,113.358Z" fill="#be6361"/><path d="M83.026,18.6a4.93,4.93,0,0,1-4.945-4.871A4.921,4.921,0,0,1,83.1,9h.073a4.93,4.93,0,0,1,4.945,4.871A4.939,4.939,0,0,1,83.026,18.6Z" fill="#f4e1e1"/><path d="M83.1,10.037h0a3.939,3.939,0,0,1,3.985,3.838A3.878,3.878,0,0,1,83.1,17.638h-.074A3.875,3.875,0,0,1,79.114,13.8,3.976,3.976,0,0,1,83.1,10.037m0-1.919h0A5.847,5.847,0,0,0,77.122,13.8a5.858,5.858,0,0,0,5.9,5.83H83.1a5.744,5.744,0,0,0,4.28-9.816,6.39,6.39,0,0,0-4.207-1.771c0,.074,0,.074-.073.074Z" fill="#be6361"/><path d="M34.022,37.712a4.822,4.822,0,0,1-4.945-4.8A5.1,5.1,0,0,1,34.1,28.044h.074a4.868,4.868,0,0,1,4.944,4.8,5.109,5.109,0,0,1-5.092,4.871Z" fill="#f4e1e1"/><path d="M34.1,29.077h0a3.892,3.892,0,0,1,3.985,3.838A3.939,3.939,0,0,1,34.1,36.753h-.074a3.828,3.828,0,0,1-3.911-3.838A3.94,3.94,0,0,1,34.1,29.077m0-1.992h0a6.085,6.085,0,0,0-5.978,5.9,5.8,5.8,0,0,0,1.7,4.133,5.5,5.5,0,0,0,4.206,1.623H34.1a6.072,6.072,0,0,0,5.978-5.83,5.707,5.707,0,0,0-5.9-5.756l-.074-.074Z" fill="#be6361"/><path d="M116.605,79.852a5.455,5.455,0,0,1-3.542-1.623,4.9,4.9,0,0,1-1.4-3.543,4.607,4.607,0,0,1,5.018-4.5h.074a5.293,5.293,0,0,1,4.944,5.167,4.669,4.669,0,0,1-5.092,4.5Z" fill="#f4e1e1"/><path d="M116.679,71.144h0a4.249,4.249,0,0,1,3.985,4.133,3.574,3.574,0,0,1-3.985,3.542h-.074a4.182,4.182,0,0,1-3.911-4.133,3.7,3.7,0,0,1,3.985-3.542m0-1.993h0a5.578,5.578,0,0,0-5.978,5.462,6.277,6.277,0,0,0,5.9,6.2h.074a5.478,5.478,0,0,0,5.978-5.388,6.286,6.286,0,0,0-1.7-4.28,6.141,6.141,0,0,0-4.206-1.993Z" fill="#be6361"/><path d="M62.214,115.351a5.153,5.153,0,0,1-3.542-1.329,4.406,4.406,0,0,1-1.4-3.321,5.15,5.15,0,0,1,5.019-4.871h.074a4.868,4.868,0,0,1,4.944,4.8,5.041,5.041,0,0,1-5.092,4.724Z" fill="#f4e1e1"/><path d="M62.288,106.79h0a3.832,3.832,0,0,1,3.985,3.763,3.989,3.989,0,0,1-3.985,3.838h-.074a3.724,3.724,0,0,1-3.911-3.764,4.039,4.039,0,0,1,3.985-3.837m0-1.993h0a6.194,6.194,0,0,0-6.052,5.83,5.636,5.636,0,0,0,1.7,4.059,6.238,6.238,0,0,0,4.206,1.624h.074a6.13,6.13,0,0,0,6.052-5.756,5.638,5.638,0,0,0-1.7-4.06,5.976,5.976,0,0,0-4.206-1.7Z" fill="#be6361"/></g></g>
</g>
</g>

<!-- ITEM 2 -->
<g transform="translate(849.0 108.0) scale(0.755154185933443 0.7557608943645905) rotate(0.0 145.0035 245.44799999999998)">
<g transform="translate(-0.0 -0.0)">
<title>map_marker</title><g id="Layer_2-i2" data-name="Layer 2"><g id="Layer_1-2-i2" data-name="Layer 1"><path d="M286.232,145c0,25.536-15.173,71.946-35.529,122.8-3.109,7.772-6.365,15.766-9.7,23.686-33.013,78.534-74.464,161.584-89.934,191.932a6.887,6.887,0,0,1-12.287,0C117.913,442.339,49.3,304.811,18.653,212.435a408.662,408.662,0,0,1-11.4-40.192c-2.295-10.585-3.627-19.763-3.627-27.165A141.3,141.3,0,0,1,286.232,145Z" fill="#fff"/><path d="M144.93,490.9h0a10.326,10.326,0,0,1-9.4-5.848c-20.429-40.266-89.637-178.9-120.355-271.5A419.355,419.355,0,0,1,3.7,172.983C1.184,161.436,0,152.332,0,145,0,65.063,65.063,0,145,0s145,64.989,145,144.93c0,23.094-12.065,64.841-35.825,124.2-3.479,8.734-6.662,16.506-9.7,23.76C209.919,375.056,166.839,460.77,154.4,485.048A10.6,10.6,0,0,1,144.93,490.9Zm0-483.42c-75.87,0-137.6,61.732-137.6,137.6,0,6.735,1.184,15.4,3.553,26.351a380.949,380.949,0,0,0,11.325,39.822c30.57,92.08,99.482,230.348,119.911,270.466a3.173,3.173,0,0,0,5.7,0c12.362-24.278,55.367-109.77,89.786-191.71,3.035-7.253,6.217-14.952,9.7-23.612,23.39-58.475,35.233-99.334,35.233-121.391C282.532,69.134,220.8,7.476,144.93,7.476Z" fill="#5bcf9c"/><circle cx="144.942" cy="141.819" r="90.75" fill="#5bcf9c"/><path d="M144.93,175.352a7.487,7.487,0,0,1-5.626-2.591l-28.423-32.939a7.4,7.4,0,0,1,11.177-9.7l22.206,25.759,27.757-39.6a7.383,7.383,0,0,1,12.065,8.512l-33.235,47.373a7.334,7.334,0,0,1-5.7,3.109C145.152,175.352,145.078,175.352,144.93,175.352Z" fill="#fff"/></g></g>
</g>
</g>

<!-- ITEM 3 -->
<g transform="translate(680.0 916.0) scale(1.3233358867086993 1.330010379052958) rotate(0.0 203.652 160.90099999999998)">
<g transform="translate(-0.0 -0.0)">
<title>basket</title><g id="Layer_2-i3" data-name="Layer 2"><g id="Layer_1-2-i3" data-name="Layer 1"><path d="M369.254,224.159H146.946a3.7,3.7,0,0,1-3.7-3.332l-22.8-208.834a3.762,3.762,0,0,1,.889-2.887,3.553,3.553,0,0,1,2.739-1.258H391.98a3.553,3.553,0,0,1,2.739,1.258,3.762,3.762,0,0,1,.889,2.887l-22.8,208.834A3.463,3.463,0,0,1,369.254,224.159Zm-218.976-7.4H365.922L387.909,15.325H128.291Z" fill="#c595c8"/><rect x="275.59" y="112.322" width="210.099" height="7.403" transform="translate(223.965 481.811) rotate(-83.765)" fill="#c595c8"/><rect x="216.362" y="112.338" width="209.133" height="7.403" transform="translate(187.445 430.114) rotate(-86.853)" fill="#c595c8"/><rect x="255.916" y="11.623" width="7.403" height="208.834" fill="#c595c8"/><rect x="191.643" y="11.47" width="7.403" height="209.124" transform="translate(-6.034 10.819) rotate(-3.124)" fill="#c595c8"/><rect x="186.623" y="16.995" width="7.403" height="14.065" transform="translate(-1 10.044) rotate(-3.015)" fill="#d67ccc"/><rect x="131.837" y="11.05" width="7.403" height="210.094" transform="translate(-11.796 15.391) rotate(-6.229)" fill="#c595c8"/><rect x="386.381" y="17.926" width="9.328" height="7.403" transform="translate(326.029 407.835) rotate(-83.61)" fill="#d67ccc"/><rect x="320.259" y="19.086" width="11.474" height="7.403" transform="translate(284.371 346.917) rotate(-86.681)" fill="#d67ccc"/><rect x="255.916" y="17.027" width="7.403" height="15.028" fill="#d67ccc"/><rect x="121.888" y="16.956" width="7.403" height="15.917" transform="translate(-1.944 13.568) rotate(-6.136)" fill="#d67ccc"/><path d="M399.9,19.026H28.279a7.4,7.4,0,1,1,0-14.806H399.9a7.4,7.4,0,0,1,0,14.806Z" fill="#c595c8"/><rect x="129.846" y="60.112" width="256.508" height="7.403" fill="#c595c8"/><rect x="135.546" y="112.302" width="245.108" height="7.403" fill="#c595c8"/><rect x="141.246" y="164.566" width="233.708" height="7.403" fill="#c595c8"/><path d="M399.9,252.586a7.426,7.426,0,0,1-7.4-7.4,17.345,17.345,0,0,0-17.322-17.323H146.946a7.4,7.4,0,0,1,0-14.806h228.23A32.194,32.194,0,0,1,407.3,245.183,7.425,7.425,0,0,1,399.9,252.586Z" fill="#c595c8"/><path d="M88.982,12.215A12.132,12.132,0,0,1,76.767,24.43H18.359A12.2,12.2,0,0,1,9.7,3.554,12.13,12.13,0,0,1,18.359,0H76.767A12.133,12.133,0,0,1,88.982,12.215Z" fill="#c595c8"/><path d="M56.558,12.215A12.259,12.259,0,0,1,44.269,24.43H12.289A12.2,12.2,0,0,1,3.627,3.554,12.131,12.131,0,0,1,12.289,0h31.98A12.149,12.149,0,0,1,56.558,12.215Z" fill="#2b2b2b"/><path d="M375.176,277.311H133.621a7.4,7.4,0,0,1,0-14.806H375.176A17.345,17.345,0,0,0,392.5,245.183a7.4,7.4,0,1,1,14.806,0A32.194,32.194,0,0,1,375.176,277.311Z" fill="#2b2b2b"/><path d="M348.081,321.8a28.945,28.945,0,1,1,28.946-28.945A28.94,28.94,0,0,1,348.081,321.8Zm0-43.084a14.139,14.139,0,1,0,14.14,14.139A14.185,14.185,0,0,0,348.081,278.718Z" fill="#2b2b2b"/><path d="M179.519,321.8a28.945,28.945,0,1,1,28.945-28.945A28.94,28.94,0,0,1,179.519,321.8Zm0-43.084a14.139,14.139,0,1,0,14.139,14.139A14.186,14.186,0,0,0,179.519,278.718Z" fill="#2b2b2b"/></g></g>
</g>
</g>

              </svg>