<?xml version="1.0" encoding="UTF-8"?>
<svg xmlns="http://www.w3.org/2000/svg" xmlns:xlink="http://www.w3.org/1999/xlink" width="200pt" height="200pt" viewBox="0 0 200 200" version="1.1">
<g id="surface3743306">
<path style=" stroke:none;fill-rule:nonzero;fill:rgb(33.72549%,37.254902%,63.137255%);fill-opacity:1;" d="M 91 145 C 91 145 93 151 101 151 C 109 151 111 145 111 145 "/>
<path style=" stroke:none;fill-rule:nonzero;fill:rgb(40%,40%,40%);fill-opacity:1;" d="M 101 152 C 92.378906 152 90.140625 145.589844 90.050781 145.316406 C 89.875 144.792969 90.160156 144.226562 90.683594 144.050781 C 91.207031 143.875 91.769531 144.15625 91.945312 144.679688 C 92.023438 144.894531 93.863281 150 101 150 C 108.195312 150 110.035156 144.734375 110.050781 144.683594 C 110.226562 144.160156 110.792969 143.878906 111.316406 144.050781 C 111.839844 144.226562 112.121094 144.792969 111.949219 145.316406 C 111.859375 145.589844 109.621094 152 101 152 Z M 101 152 "/>
<path style=" stroke:none;fill-rule:nonzero;fill:rgb(100%,100%,100%);fill-opacity:1;" d="M 34 50 L 30 50 C 25.582031 50 22 53.582031 22 58 L 22 146 C 22 150.417969 25.582031 154 30 154 L 90 154 C 90 154 92 160 101 160 C 110 160 112 154 112 154 L 172 154 C 176.417969 154 180 150.417969 180 146 L 180 58 C 180 53.582031 176.417969 50 172 50 Z M 34 50 "/>
<path style=" stroke:none;fill-rule:nonzero;fill:rgb(99.607843%,99.215686%,93.72549%);fill-opacity:1;" d="M 171 55 L 171 145 L 31 145 L 31 55 L 41 39 C 85 39 101 51 101 51 C 101 51 117 39 161 39 Z M 171 55 "/>
<path style=" stroke:none;fill-rule:nonzero;fill:rgb(80.784314%,80%,74.509804%);fill-opacity:1;" d="M 31 145 L 101 145 C 101 145 85 133 41 133 Z M 31 145 "/>
<path style=" stroke:none;fill-rule:nonzero;fill:rgb(99.607843%,99.215686%,93.72549%);fill-opacity:1;" d="M 41 39 C 85 39 101 51 101 51 C 101 51 117 39 161 39 L 161 133 C 117 133 101 145 101 145 C 101 145 85 133 41 133 Z M 41 39 "/>
<path style=" stroke:none;fill-rule:nonzero;fill:rgb(80.784314%,80%,74.509804%);fill-opacity:1;" d="M 171 146 L 101 146 C 100.570312 146 100.1875 145.722656 100.050781 145.316406 C 99.914062 144.90625 100.054688 144.457031 100.398438 144.199219 C 101.0625 143.699219 117.171875 131.996094 161 131.996094 C 161.296875 131.996094 161.578125 132.128906 161.769531 132.359375 L 171.769531 144.359375 C 172.019531 144.65625 172.070312 145.070312 171.90625 145.421875 C 171.738281 145.777344 171.386719 146 171 146 Z M 171 146 "/>
<path style=" stroke:none;fill-rule:nonzero;fill:rgb(40%,40%,40%);fill-opacity:1;" d="M 30.222656 144.363281 L 40.230469 132.371094 L 41.765625 133.652344 L 31.757812 145.644531 Z M 30.222656 144.363281 "/>
<path style=" stroke:none;fill-rule:nonzero;fill:rgb(40%,40%,40%);fill-opacity:1;" d="M 172 48 L 166.625 48 L 169.125 52 L 172 52 C 175.308594 52 178 54.691406 178 58 L 178 146 C 178 149.308594 175.308594 152 172 152 L 112 152 C 111.15625 152 110.398438 152.550781 110.113281 153.34375 C 110.042969 153.535156 108.332031 158 101 158 C 93.667969 158 91.957031 153.535156 91.894531 153.367188 C 91.625 152.550781 90.863281 152 90 152 L 30 152 C 26.691406 152 24 149.308594 24 146 L 24 58 C 24 54.691406 26.691406 52 30 52 L 32.875 52 L 35.375 48 L 30 48 C 24.484375 48 20 52.484375 20 58 L 20 146 C 20 151.515625 24.484375 156 30 156 L 88.761719 156 C 90.023438 158.132812 93.367188 162 101 162 C 108.632812 162 111.976562 158.132812 113.238281 156 L 172 156 C 177.515625 156 182 151.515625 182 146 L 182 58 C 182 52.484375 177.515625 48 172 48 Z M 172 48 "/>
<path style=" stroke:none;fill-rule:nonzero;fill:rgb(40%,40%,40%);fill-opacity:1;" d="M 100.996094 146 C 100.789062 146 100.578125 145.9375 100.402344 145.800781 C 100.242188 145.683594 84.046875 134 41 134 C 40.449219 134 40 133.550781 40 133 L 40 39 C 40 38.449219 40.449219 38 41 38 C 80.734375 38 97.6875 47.621094 101 49.785156 C 104.3125 47.621094 121.265625 38 161 38 C 161.550781 38 162 38.449219 162 39 L 162 133 C 162 133.550781 161.550781 134 161 134 C 138.40625 134 123.414062 137.238281 114.8125 139.953125 C 114.292969 140.125 113.726562 139.828125 113.558594 139.300781 C 113.394531 138.777344 113.6875 138.214844 114.210938 138.046875 C 122.816406 135.328125 137.707031 132.097656 160 132.003906 L 160 40.003906 C 117.699219 40.179688 101.757812 51.683594 101.597656 51.800781 C 101.246094 52.066406 100.753906 52.066406 100.402344 51.800781 C 100.242188 51.683594 84.300781 40.179688 42 40.003906 L 42 132.003906 C 85.074219 132.179688 100.941406 143.707031 101.601562 144.199219 C 102.042969 144.53125 102.132812 145.15625 101.800781 145.597656 C 101.605469 145.863281 101.300781 146 100.996094 146 Z M 100.996094 146 "/>
<path style=" stroke:none;fill-rule:nonzero;fill:rgb(40%,40%,40%);fill-opacity:1;" d="M 171 146 L 31 146 C 30.449219 146 30 145.550781 30 145 L 30 55 C 30 54.8125 30.050781 54.628906 30.152344 54.46875 L 40.152344 38.46875 L 41.847656 39.527344 L 32 55.289062 L 32 144 L 170 144 L 170 55.289062 L 160.152344 39.53125 L 161.847656 38.472656 L 171.847656 54.472656 C 171.949219 54.628906 172 54.8125 172 55 L 172 145 C 172 145.550781 171.550781 146 171 146 Z M 171 146 "/>
<path style=" stroke:none;fill-rule:nonzero;fill:rgb(40%,40%,40%);fill-opacity:1;" d="M 160.230469 133.636719 L 161.765625 132.355469 L 171.765625 144.355469 L 170.226562 145.632812 Z M 160.230469 133.636719 "/>
<path style=" stroke:none;fill-rule:nonzero;fill:rgb(40%,40%,40%);fill-opacity:1;" d="M 85.515625 57.21875 C 85.421875 57.21875 85.324219 57.203125 85.226562 57.175781 C 83.316406 56.609375 81.316406 56.074219 79.28125 55.589844 C 78.742188 55.460938 78.410156 54.921875 78.539062 54.382812 C 78.667969 53.84375 79.214844 53.519531 79.746094 53.640625 C 81.816406 54.136719 83.851562 54.679688 85.796875 55.257812 C 86.328125 55.414062 86.628906 55.972656 86.472656 56.503906 C 86.34375 56.9375 85.945312 57.21875 85.515625 57.21875 Z M 85.515625 57.21875 "/>
<path style=" stroke:none;fill-rule:nonzero;fill:rgb(40%,40%,40%);fill-opacity:1;" d="M 91.515625 59.199219 C 91.398438 59.199219 91.285156 59.179688 91.171875 59.136719 C 90.546875 58.910156 89.878906 58.675781 89.191406 58.441406 C 88.667969 58.261719 88.390625 57.691406 88.566406 57.171875 C 88.746094 56.648438 89.316406 56.371094 89.839844 56.546875 C 90.542969 56.789062 91.21875 57.027344 91.859375 57.257812 C 92.375 57.449219 92.644531 58.023438 92.453125 58.542969 C 92.304688 58.949219 91.921875 59.199219 91.515625 59.199219 Z M 91.515625 59.199219 "/>
<path style=" stroke:none;fill-rule:nonzero;fill:rgb(40%,40%,40%);fill-opacity:1;" d="M 73.515625 54.34375 C 73.457031 54.34375 73.390625 54.335938 73.332031 54.324219 C 67.105469 53.160156 60.421875 52.375 53.460938 52 C 52.90625 51.96875 52.484375 51.496094 52.515625 50.949219 C 52.542969 50.394531 53.039062 49.933594 53.566406 50.003906 C 60.613281 50.386719 67.386719 51.179688 73.695312 52.359375 C 74.238281 52.460938 74.597656 52.984375 74.496094 53.527344 C 74.40625 54.007812 73.988281 54.34375 73.515625 54.34375 Z M 73.515625 54.34375 "/>
<path style=" stroke:none;fill-rule:nonzero;fill:rgb(40%,40%,40%);fill-opacity:1;" d="M 85.515625 71.21875 C 85.421875 71.21875 85.324219 71.203125 85.226562 71.175781 C 83.316406 70.609375 81.316406 70.074219 79.28125 69.589844 C 78.742188 69.460938 78.410156 68.921875 78.539062 68.382812 C 78.667969 67.84375 79.214844 67.519531 79.746094 67.640625 C 81.816406 68.136719 83.851562 68.679688 85.796875 69.257812 C 86.328125 69.414062 86.628906 69.972656 86.472656 70.503906 C 86.34375 70.9375 85.945312 71.21875 85.515625 71.21875 Z M 85.515625 71.21875 "/>
<path style=" stroke:none;fill-rule:nonzero;fill:rgb(40%,40%,40%);fill-opacity:1;" d="M 91.515625 73.199219 C 91.398438 73.199219 91.285156 73.179688 91.171875 73.136719 C 90.546875 72.910156 89.878906 72.675781 89.191406 72.441406 C 88.667969 72.261719 88.390625 71.691406 88.566406 71.171875 C 88.746094 70.648438 89.316406 70.371094 89.839844 70.546875 C 90.542969 70.789062 91.21875 71.027344 91.859375 71.257812 C 92.375 71.449219 92.644531 72.023438 92.453125 72.542969 C 92.304688 72.949219 91.921875 73.199219 91.515625 73.199219 Z M 91.515625 73.199219 "/>
<path style=" stroke:none;fill-rule:nonzero;fill:rgb(40%,40%,40%);fill-opacity:1;" d="M 73.515625 68.34375 C 73.457031 68.34375 73.390625 68.335938 73.332031 68.324219 C 67.105469 67.160156 60.421875 66.375 53.460938 66 C 52.90625 65.96875 52.484375 65.496094 52.515625 64.949219 C 52.542969 64.394531 53.039062 63.953125 53.566406 64.003906 C 60.613281 64.386719 67.386719 65.179688 73.695312 66.359375 C 74.238281 66.460938 74.597656 66.984375 74.496094 67.527344 C 74.40625 68.007812 73.988281 68.34375 73.515625 68.34375 Z M 73.515625 68.34375 "/>
<path style=" stroke:none;fill-rule:nonzero;fill:rgb(40%,40%,40%);fill-opacity:1;" d="M 85.515625 85.21875 C 85.421875 85.21875 85.324219 85.203125 85.226562 85.175781 C 83.316406 84.609375 81.316406 84.074219 79.28125 83.589844 C 78.742188 83.460938 78.410156 82.921875 78.539062 82.382812 C 78.667969 81.847656 79.214844 81.515625 79.746094 81.640625 C 81.816406 82.136719 83.851562 82.679688 85.796875 83.257812 C 86.328125 83.414062 86.628906 83.972656 86.472656 84.503906 C 86.34375 84.9375 85.945312 85.21875 85.515625 85.21875 Z M 85.515625 85.21875 "/>
<path style=" stroke:none;fill-rule:nonzero;fill:rgb(40%,40%,40%);fill-opacity:1;" d="M 91.515625 87.199219 C 91.398438 87.199219 91.285156 87.179688 91.171875 87.136719 C 90.546875 86.910156 89.878906 86.675781 89.191406 86.441406 C 88.667969 86.261719 88.390625 85.691406 88.566406 85.171875 C 88.746094 84.648438 89.316406 84.371094 89.839844 84.546875 C 90.542969 84.789062 91.21875 85.027344 91.859375 85.257812 C 92.375 85.449219 92.644531 86.023438 92.453125 86.542969 C 92.304688 86.949219 91.921875 87.199219 91.515625 87.199219 Z M 91.515625 87.199219 "/>
<path style=" stroke:none;fill-rule:nonzero;fill:rgb(40%,40%,40%);fill-opacity:1;" d="M 73.515625 82.34375 C 73.457031 82.34375 73.390625 82.335938 73.332031 82.324219 C 67.105469 81.160156 60.421875 80.375 53.460938 80 C 52.90625 79.96875 52.484375 79.496094 52.515625 78.949219 C 52.542969 78.394531 53.039062 77.949219 53.566406 78.003906 C 60.613281 78.386719 67.386719 79.179688 73.695312 80.359375 C 74.238281 80.460938 74.597656 80.984375 74.496094 81.527344 C 74.40625 82.007812 73.988281 82.34375 73.515625 82.34375 Z M 73.515625 82.34375 "/>
<path style=" stroke:none;fill-rule:nonzero;fill:rgb(40%,40%,40%);fill-opacity:1;" d="M 85.515625 99.21875 C 85.421875 99.21875 85.324219 99.203125 85.226562 99.175781 C 83.316406 98.609375 81.316406 98.074219 79.28125 97.589844 C 78.742188 97.460938 78.410156 96.921875 78.539062 96.382812 C 78.667969 95.84375 79.214844 95.519531 79.746094 95.640625 C 81.816406 96.136719 83.851562 96.679688 85.796875 97.257812 C 86.328125 97.414062 86.628906 97.972656 86.472656 98.503906 C 86.34375 98.9375 85.945312 99.21875 85.515625 99.21875 Z M 85.515625 99.21875 "/>
<path style=" stroke:none;fill-rule:nonzero;fill:rgb(40%,40%,40%);fill-opacity:1;" d="M 91.515625 101.199219 C 91.398438 101.199219 91.285156 101.179688 91.171875 101.136719 C 90.546875 100.910156 89.878906 100.675781 89.191406 100.441406 C 88.667969 100.261719 88.390625 99.691406 88.566406 99.171875 C 88.746094 98.648438 89.316406 98.371094 89.839844 98.546875 C 90.542969 98.789062 91.21875 99.027344 91.859375 99.257812 C 92.375 99.449219 92.644531 100.023438 92.453125 100.542969 C 92.304688 100.949219 91.921875 101.199219 91.515625 101.199219 Z M 91.515625 101.199219 "/>
<path style=" stroke:none;fill-rule:nonzero;fill:rgb(40%,40%,40%);fill-opacity:1;" d="M 73.515625 96.34375 C 73.457031 96.34375 73.390625 96.335938 73.332031 96.324219 C 67.105469 95.160156 60.421875 94.375 53.460938 94 C 52.90625 93.96875 52.484375 93.496094 52.515625 92.949219 C 52.542969 92.394531 53.039062 91.941406 53.566406 92.003906 C 60.613281 92.386719 67.386719 93.179688 73.695312 94.359375 C 74.238281 94.460938 74.597656 94.984375 74.496094 95.527344 C 74.40625 96.007812 73.988281 96.34375 73.515625 96.34375 Z M 73.515625 96.34375 "/>
<path style=" stroke:none;fill-rule:nonzero;fill:rgb(40%,40%,40%);fill-opacity:1;" d="M 85.515625 113.21875 C 85.421875 113.21875 85.324219 113.203125 85.226562 113.175781 C 83.316406 112.609375 81.316406 112.074219 79.28125 111.589844 C 78.742188 111.460938 78.410156 110.921875 78.539062 110.382812 C 78.667969 109.847656 79.214844 109.515625 79.746094 109.640625 C 81.816406 110.136719 83.851562 110.679688 85.796875 111.257812 C 86.328125 111.414062 86.628906 111.972656 86.472656 112.503906 C 86.34375 112.9375 85.945312 113.21875 85.515625 113.21875 Z M 85.515625 113.21875 "/>
<path style=" stroke:none;fill-rule:nonzero;fill:rgb(40%,40%,40%);fill-opacity:1;" d="M 91.515625 115.199219 C 91.398438 115.199219 91.285156 115.179688 91.171875 115.136719 C 90.546875 114.910156 89.878906 114.675781 89.191406 114.441406 C 88.667969 114.261719 88.390625 113.691406 88.566406 113.171875 C 88.746094 112.648438 89.316406 112.371094 89.839844 112.546875 C 90.542969 112.789062 91.21875 113.027344 91.859375 113.257812 C 92.375 113.449219 92.644531 114.023438 92.453125 114.542969 C 92.304688 114.949219 91.921875 115.199219 91.515625 115.199219 Z M 91.515625 115.199219 "/>
<path style=" stroke:none;fill-rule:nonzero;fill:rgb(40%,40%,40%);fill-opacity:1;" d="M 73.515625 110.34375 C 73.457031 110.34375 73.390625 110.335938 73.332031 110.324219 C 67.105469 109.160156 60.421875 108.375 53.460938 108 C 52.90625 107.96875 52.484375 107.496094 52.515625 106.949219 C 52.542969 106.394531 53.039062 105.933594 53.566406 106.003906 C 60.613281 106.386719 67.386719 107.179688 73.695312 108.359375 C 74.238281 108.460938 74.597656 108.984375 74.496094 109.527344 C 74.40625 110.007812 73.988281 110.34375 73.515625 110.34375 Z M 73.515625 110.34375 "/>
<path style=" stroke:none;fill-rule:nonzero;fill:rgb(40%,40%,40%);fill-opacity:1;" d="M 85.515625 127.21875 C 85.421875 127.21875 85.324219 127.203125 85.226562 127.175781 C 83.316406 126.609375 81.316406 126.074219 79.28125 125.589844 C 78.742188 125.460938 78.410156 124.921875 78.539062 124.382812 C 78.667969 123.84375 79.214844 123.519531 79.746094 123.640625 C 81.816406 124.136719 83.851562 124.679688 85.796875 125.257812 C 86.328125 125.414062 86.628906 125.972656 86.472656 126.503906 C 86.34375 126.9375 85.945312 127.21875 85.515625 127.21875 Z M 85.515625 127.21875 "/>
<path style=" stroke:none;fill-rule:nonzero;fill:rgb(40%,40%,40%);fill-opacity:1;" d="M 91.515625 129.199219 C 91.398438 129.199219 91.285156 129.179688 91.171875 129.136719 C 90.546875 128.910156 89.878906 128.675781 89.191406 128.441406 C 88.667969 128.261719 88.390625 127.691406 88.566406 127.171875 C 88.746094 126.648438 89.316406 126.371094 89.839844 126.546875 C 90.542969 126.789062 91.21875 127.027344 91.859375 127.257812 C 92.375 127.449219 92.644531 128.023438 92.453125 128.542969 C 92.304688 128.949219 91.921875 129.199219 91.515625 129.199219 Z M 91.515625 129.199219 "/>
<path style=" stroke:none;fill-rule:nonzero;fill:rgb(40%,40%,40%);fill-opacity:1;" d="M 73.515625 124.34375 C 73.457031 124.34375 73.390625 124.335938 73.332031 124.324219 C 67.105469 123.160156 60.421875 122.375 53.460938 122 C 52.90625 121.96875 52.484375 121.496094 52.515625 120.949219 C 52.542969 120.394531 53.039062 119.953125 53.566406 120.003906 C 60.613281 120.386719 67.386719 121.179688 73.695312 122.359375 C 74.238281 122.460938 74.597656 122.984375 74.496094 123.527344 C 74.40625 124.007812 73.988281 124.34375 73.515625 124.34375 Z M 73.515625 124.34375 "/>
<path style=" stroke:none;fill-rule:nonzero;fill:rgb(40%,40%,40%);fill-opacity:1;" d="M 111.515625 73.199219 C 111.105469 73.199219 110.722656 72.949219 110.574219 72.542969 C 110.382812 72.023438 110.652344 71.449219 111.171875 71.257812 C 114.964844 69.871094 119.039062 68.652344 123.28125 67.640625 L 129.085938 66.453125 C 129.625 66.34375 130.152344 66.691406 130.265625 67.234375 C 130.375 67.777344 130.027344 68.304688 129.484375 68.414062 L 123.714844 69.59375 C 119.578125 70.578125 115.578125 71.773438 111.859375 73.136719 C 111.746094 73.179688 111.628906 73.199219 111.515625 73.199219 Z M 111.515625 73.199219 "/>
<path style=" stroke:none;fill-rule:nonzero;fill:rgb(40%,40%,40%);fill-opacity:1;" d="M 135.355469 67.378906 C 134.863281 67.378906 134.4375 67.019531 134.363281 66.519531 C 134.285156 65.972656 134.664062 65.464844 135.214844 65.386719 C 135.925781 65.289062 141.960938 64.597656 141.960938 64.597656 L 142.1875 66.585938 C 142.1875 66.585938 136.199219 67.269531 135.492188 67.367188 C 135.449219 67.375 135.402344 67.378906 135.355469 67.378906 Z M 135.355469 67.378906 "/>
<path style=" stroke:none;fill-rule:nonzero;fill:rgb(40%,40%,40%);fill-opacity:1;" d="M 146.925781 66.160156 C 146.40625 66.160156 145.964844 65.761719 145.929688 65.230469 C 145.890625 64.683594 146.304688 64.203125 146.855469 64.164062 C 147.707031 64.105469 148.574219 64.046875 149.457031 64 C 150.003906 63.949219 150.480469 64.390625 150.511719 64.945312 C 150.539062 65.496094 150.117188 65.96875 149.566406 65.996094 C 148.695312 66.042969 147.839844 66.097656 146.992188 66.15625 C 146.972656 66.160156 146.949219 66.160156 146.925781 66.160156 Z M 146.925781 66.160156 "/>
<path style=" stroke:none;fill-rule:nonzero;fill:rgb(40%,40%,40%);fill-opacity:1;" d="M 111.515625 59.199219 C 111.105469 59.199219 110.722656 58.949219 110.574219 58.542969 C 110.382812 58.023438 110.652344 57.449219 111.171875 57.257812 C 114.964844 55.871094 119.039062 54.652344 123.28125 53.640625 L 129.085938 52.453125 C 129.625 52.34375 130.152344 52.691406 130.265625 53.234375 C 130.375 53.777344 130.027344 54.304688 129.484375 54.414062 L 123.714844 55.59375 C 119.578125 56.578125 115.578125 57.773438 111.859375 59.136719 C 111.746094 59.179688 111.628906 59.199219 111.515625 59.199219 Z M 111.515625 59.199219 "/>
<path style=" stroke:none;fill-rule:nonzero;fill:rgb(40%,40%,40%);fill-opacity:1;" d="M 135.355469 53.378906 C 134.863281 53.378906 134.4375 53.019531 134.363281 52.519531 C 134.285156 51.972656 134.664062 51.464844 135.214844 51.386719 C 135.925781 51.289062 141.960938 50.597656 141.960938 50.597656 L 142.1875 52.585938 C 142.1875 52.585938 136.199219 53.269531 135.492188 53.367188 C 135.449219 53.375 135.402344 53.378906 135.355469 53.378906 Z M 135.355469 53.378906 "/>
<path style=" stroke:none;fill-rule:nonzero;fill:rgb(40%,40%,40%);fill-opacity:1;" d="M 146.925781 52.160156 C 146.40625 52.160156 145.964844 51.761719 145.929688 51.230469 C 145.890625 50.683594 146.304688 50.203125 146.855469 50.164062 C 147.707031 50.105469 148.574219 50.046875 149.457031 50 C 150.003906 49.925781 150.480469 50.390625 150.511719 50.945312 C 150.539062 51.496094 150.117188 51.96875 149.566406 51.996094 C 148.695312 52.042969 147.839844 52.097656 146.992188 52.15625 C 146.972656 52.160156 146.949219 52.160156 146.925781 52.160156 Z M 146.925781 52.160156 "/>
<path style=" stroke:none;fill-rule:nonzero;fill:rgb(40%,40%,40%);fill-opacity:1;" d="M 111.515625 101.199219 C 111.105469 101.199219 110.722656 100.949219 110.574219 100.542969 C 110.382812 100.023438 110.652344 99.449219 111.171875 99.257812 C 114.964844 97.871094 119.039062 96.652344 123.28125 95.640625 L 129.085938 94.453125 C 129.625 94.34375 130.152344 94.691406 130.265625 95.234375 C 130.375 95.777344 130.027344 96.304688 129.484375 96.414062 L 123.714844 97.59375 C 119.578125 98.578125 115.578125 99.773438 111.859375 101.136719 C 111.746094 101.179688 111.628906 101.199219 111.515625 101.199219 Z M 111.515625 101.199219 "/>
<path style=" stroke:none;fill-rule:nonzero;fill:rgb(40%,40%,40%);fill-opacity:1;" d="M 135.355469 95.378906 C 134.863281 95.378906 134.4375 95.019531 134.363281 94.519531 C 134.285156 93.972656 134.664062 93.464844 135.214844 93.386719 C 135.925781 93.289062 141.960938 92.597656 141.960938 92.597656 L 142.1875 94.585938 C 142.1875 94.585938 136.199219 95.269531 135.492188 95.367188 C 135.449219 95.375 135.402344 95.378906 135.355469 95.378906 Z M 135.355469 95.378906 "/>
<path style=" stroke:none;fill-rule:nonzero;fill:rgb(40%,40%,40%);fill-opacity:1;" d="M 146.925781 94.160156 C 146.40625 94.160156 145.964844 93.761719 145.929688 93.230469 C 145.890625 92.683594 146.304688 92.203125 146.855469 92.164062 C 147.707031 92.105469 148.574219 92.046875 149.457031 92 C 150.003906 91.933594 150.480469 92.390625 150.511719 92.945312 C 150.539062 93.496094 150.117188 93.96875 149.566406 93.996094 C 148.695312 94.042969 147.839844 94.097656 146.992188 94.15625 C 146.972656 94.160156 146.949219 94.160156 146.925781 94.160156 Z M 146.925781 94.160156 "/>
<path style=" stroke:none;fill-rule:nonzero;fill:rgb(40%,40%,40%);fill-opacity:1;" d="M 111.515625 87.199219 C 111.105469 87.199219 110.722656 86.949219 110.574219 86.542969 C 110.382812 86.023438 110.652344 85.449219 111.171875 85.257812 C 114.964844 83.871094 119.039062 82.652344 123.28125 81.640625 L 129.085938 80.453125 C 129.625 80.34375 130.152344 80.691406 130.265625 81.234375 C 130.375 81.777344 130.027344 82.304688 129.484375 82.414062 L 123.714844 83.59375 C 119.578125 84.578125 115.578125 85.773438 111.859375 87.136719 C 111.746094 87.179688 111.628906 87.199219 111.515625 87.199219 Z M 111.515625 87.199219 "/>
<path style=" stroke:none;fill-rule:nonzero;fill:rgb(40%,40%,40%);fill-opacity:1;" d="M 135.355469 81.378906 C 134.863281 81.378906 134.4375 81.019531 134.363281 80.519531 C 134.285156 79.972656 134.664062 79.464844 135.214844 79.386719 C 135.925781 79.289062 141.960938 78.597656 141.960938 78.597656 L 142.1875 80.585938 C 142.1875 80.585938 136.199219 81.269531 135.492188 81.367188 C 135.449219 81.375 135.402344 81.378906 135.355469 81.378906 Z M 135.355469 81.378906 "/>
<path style=" stroke:none;fill-rule:nonzero;fill:rgb(40%,40%,40%);fill-opacity:1;" d="M 146.925781 80.160156 C 146.40625 80.160156 145.964844 79.761719 145.929688 79.230469 C 145.890625 78.683594 146.304688 78.203125 146.855469 78.164062 C 147.707031 78.105469 148.574219 78.046875 149.457031 78 C 150.003906 77.941406 150.480469 78.390625 150.511719 78.945312 C 150.539062 79.496094 150.117188 79.96875 149.566406 79.996094 C 148.695312 80.042969 147.839844 80.097656 146.992188 80.15625 C 146.972656 80.160156 146.949219 80.160156 146.925781 80.160156 Z M 146.925781 80.160156 "/>
<path style=" stroke:none;fill-rule:nonzero;fill:rgb(40%,40%,40%);fill-opacity:1;" d="M 111.515625 129.199219 C 111.105469 129.199219 110.722656 128.949219 110.574219 128.542969 C 110.382812 128.023438 110.652344 127.449219 111.171875 127.257812 C 114.964844 125.871094 119.039062 124.652344 123.28125 123.640625 L 129.085938 122.453125 C 129.625 122.34375 130.152344 122.691406 130.265625 123.234375 C 130.375 123.777344 130.027344 124.304688 129.484375 124.414062 L 123.714844 125.59375 C 119.578125 126.578125 115.578125 127.773438 111.859375 129.136719 C 111.746094 129.179688 111.628906 129.199219 111.515625 129.199219 Z M 111.515625 129.199219 "/>
<path style=" stroke:none;fill-rule:nonzero;fill:rgb(40%,40%,40%);fill-opacity:1;" d="M 135.355469 123.378906 C 134.863281 123.378906 134.4375 123.019531 134.363281 122.519531 C 134.285156 121.972656 134.664062 121.464844 135.214844 121.386719 C 135.925781 121.289062 141.960938 120.597656 141.960938 120.597656 L 142.1875 122.585938 C 142.1875 122.585938 136.199219 123.269531 135.492188 123.367188 C 135.449219 123.375 135.402344 123.378906 135.355469 123.378906 Z M 135.355469 123.378906 "/>
<path style=" stroke:none;fill-rule:nonzero;fill:rgb(40%,40%,40%);fill-opacity:1;" d="M 146.925781 122.160156 C 146.40625 122.160156 145.964844 121.761719 145.929688 121.230469 C 145.890625 120.683594 146.304688 120.203125 146.855469 120.164062 C 147.707031 120.105469 148.574219 120.046875 149.457031 120 C 150.003906 119.945312 150.480469 120.390625 150.511719 120.945312 C 150.539062 121.496094 150.117188 121.96875 149.566406 121.996094 C 148.695312 122.042969 147.839844 122.097656 146.992188 122.15625 C 146.972656 122.160156 146.949219 122.160156 146.925781 122.160156 Z M 146.925781 122.160156 "/>
<path style=" stroke:none;fill-rule:nonzero;fill:rgb(40%,40%,40%);fill-opacity:1;" d="M 111.515625 115.199219 C 111.105469 115.199219 110.722656 114.949219 110.574219 114.542969 C 110.382812 114.023438 110.652344 113.449219 111.171875 113.257812 C 114.964844 111.871094 119.039062 110.652344 123.28125 109.640625 L 129.085938 108.453125 C 129.625 108.34375 130.152344 108.691406 130.265625 109.234375 C 130.375 109.777344 130.027344 110.304688 129.484375 110.414062 L 123.714844 111.59375 C 119.578125 112.578125 115.578125 113.773438 111.859375 115.136719 C 111.746094 115.179688 111.628906 115.199219 111.515625 115.199219 Z M 111.515625 115.199219 "/>
<path style=" stroke:none;fill-rule:nonzero;fill:rgb(40%,40%,40%);fill-opacity:1;" d="M 135.355469 109.378906 C 134.863281 109.378906 134.4375 109.019531 134.363281 108.519531 C 134.285156 107.972656 134.664062 107.464844 135.214844 107.386719 C 135.925781 107.289062 141.960938 106.597656 141.960938 106.597656 L 142.1875 108.585938 C 142.1875 108.585938 136.199219 109.269531 135.492188 109.367188 C 135.449219 109.375 135.402344 109.378906 135.355469 109.378906 Z M 135.355469 109.378906 "/>
<path style=" stroke:none;fill-rule:nonzero;fill:rgb(40%,40%,40%);fill-opacity:1;" d="M 146.925781 108.160156 C 146.40625 108.160156 145.964844 107.761719 145.929688 107.230469 C 145.890625 106.683594 146.304688 106.203125 146.855469 106.164062 C 147.707031 106.105469 148.574219 106.046875 149.457031 106 C 150.003906 105.925781 150.480469 106.390625 150.511719 106.945312 C 150.539062 107.496094 150.117188 107.96875 149.566406 107.996094 C 148.695312 108.042969 147.839844 108.097656 146.992188 108.15625 C 146.972656 108.160156 146.949219 108.160156 146.925781 108.160156 Z M 146.925781 108.160156 "/>
<path style=" stroke:none;fill-rule:nonzero;fill:rgb(40%,40%,40%);fill-opacity:1;" d="M 101 120 C 100.449219 120 100 119.550781 100 119 L 100 51 C 100 50.449219 100.449219 50 101 50 C 101.550781 50 102 50.449219 102 51 L 102 119 C 102 119.550781 101.550781 120 101 120 Z M 101 120 "/>
<path style=" stroke:none;fill-rule:nonzero;fill:rgb(40%,40%,40%);fill-opacity:1;" d="M 101 138 C 100.449219 138 100 137.550781 100 137 L 100 135 C 100 134.449219 100.449219 134 101 134 C 101.550781 134 102 134.449219 102 135 L 102 137 C 102 137.550781 101.550781 138 101 138 Z M 101 138 "/>
<path style=" stroke:none;fill-rule:nonzero;fill:rgb(40%,40%,40%);fill-opacity:1;" d="M 101 130 C 100.449219 130 100 129.550781 100 129 L 100 125 C 100 124.449219 100.449219 124 101 124 C 101.550781 124 102 124.449219 102 125 L 102 129 C 102 129.550781 101.550781 130 101 130 Z M 101 130 "/>
</g>
</svg>
